<svg width="32" height="32" fill="none" xmlns="http://www.w3.org/2000/svg"><path d="m16 20 4-4m0 0-4-4m4 4H5.333m0-6.336V9.6c0-1.493 0-2.24.291-2.811.256-.502.663-.91 1.165-1.165.57-.29 1.318-.29 2.811-.29h12.8c1.494 0 2.24 0 2.81.29.502.256.91.663 1.166 1.165.29.57.29 1.316.29 2.807v12.809c0 1.49 0 2.236-.29 2.805a2.67 2.67 0 0 1-1.166 1.166c-.57.29-1.315.29-2.806.29H9.596c-1.49 0-2.237 0-2.807-.29a2.667 2.667 0 0 1-1.165-1.166c-.29-.57-.29-1.317-.29-2.81v-.067" stroke="#888" stroke-width="3" stroke-linecap="round" stroke-linejoin="round"/></svg>
