<?xml version="1.0" encoding="UTF-8"?>
<svg width="559px" height="193px" viewBox="0 0 559 193" version="1.1" xmlns="http://www.w3.org/2000/svg" xmlns:xlink="http://www.w3.org/1999/xlink">
    <title>Group</title>
    <g id="Version-2" stroke="none" stroke-width="1" fill="none" fill-rule="evenodd">
        <g id="Vectorized" transform="translate(-431.000000, -353.000000)" fill="#000000">
            <g id="Group" transform="translate(431.028601, 353.377127)">
                <path d="M192.203399,131.622873 L192.203399,109.254873 L206.219399,131.622873 L214.235399,131.622873 L214.235399,97.5908727 L206.651399,97.5908727 L206.651399,118.278873 L193.883399,97.5908727 L184.667399,97.5908727 L184.667399,131.622873 L192.203399,131.622873 Z M241.679399,131.622873 L241.679399,124.422873 L227.663399,124.422873 L227.663399,117.894873 L240.335399,117.894873 L240.335399,111.222873 L227.663399,111.222873 L227.663399,104.742873 L241.631399,104.742873 L241.631399,97.5908727 L220.079399,97.5908727 L220.079399,131.622873 L241.679399,131.622873 Z M254.147399,131.622873 L254.147399,118.950873 L256.835399,118.950873 L262.931399,131.622873 L271.283399,131.622873 L264.371399,117.846873 C268.547399,116.358873 271.091399,112.854873 271.091399,108.246873 C271.091399,102.198873 266.771399,97.5908727 260.051399,97.5908727 L246.563399,97.5908727 L246.563399,131.622873 L254.147399,131.622873 Z M258.611399,112.422873 L254.147399,112.422873 L254.147399,104.166873 L258.611399,104.166873 C261.731399,104.166873 263.411399,105.750873 263.411399,108.294873 C263.411399,110.694873 261.731399,112.422873 258.611399,112.422873 Z M287.495399,131.622873 C297.767399,131.622873 304.631399,125.142873 304.631399,114.630873 C304.631399,104.118873 297.767399,97.5908727 287.543399,97.5908727 L275.207399,97.5908727 L275.207399,131.622873 L287.495399,131.622873 Z M287.207399,124.470873 L282.791399,124.470873 L282.791399,104.742873 L287.207399,104.742873 C292.439399,104.742873 296.711399,107.814873 296.711399,114.630873 C296.711399,121.446873 292.439399,124.470873 287.207399,124.470873 Z M323.819399,132.342873 C328.667399,132.342873 331.883399,130.326873 333.371399,128.166873 L333.851399,131.622873 L339.995399,131.622873 L339.995399,113.430873 L322.667399,113.430873 L322.667399,119.862873 L332.891399,119.862873 C332.459399,121.782873 330.107399,125.430873 324.491399,125.430873 C318.971399,125.430873 314.267399,121.734873 314.267399,114.630873 C314.267399,107.046873 319.691399,103.974873 324.299399,103.974873 C329.963399,103.974873 332.219399,107.814873 332.747399,109.926873 L340.043399,107.382873 C338.555399,102.630873 334.043399,96.8708727 324.299399,96.8708727 C314.699399,96.8708727 306.587399,103.926873 306.587399,114.630873 C306.587399,125.382873 314.363399,132.342873 323.819399,132.342873 Z M366.479399,131.622873 L366.479399,124.422873 L352.463399,124.422873 L352.463399,117.894873 L365.135399,117.894873 L365.135399,111.222873 L352.463399,111.222873 L352.463399,104.742873 L366.431399,104.742873 L366.431399,97.5908727 L344.879399,97.5908727 L344.879399,131.622873 L366.479399,131.622873 Z M382.835399,132.342873 C390.947399,132.342873 395.411399,126.918873 395.411399,121.590873 C395.411399,116.742873 392.051399,112.566873 385.571399,111.366873 L381.011399,110.502873 C378.659399,110.070873 377.651399,108.870873 377.651399,107.238873 C377.651399,105.366873 379.475399,103.590873 382.307399,103.590873 C386.435399,103.590873 387.731399,106.278873 387.971399,107.862873 L394.787399,105.942873 C394.067399,101.958873 390.851399,96.8708727 382.355399,96.8708727 C375.827399,96.8708727 370.163399,101.382873 370.163399,107.814873 C370.163399,112.854873 373.667399,116.694873 379.427399,117.798873 L384.083399,118.662873 C386.339399,119.094873 387.731399,120.342873 387.731399,122.070873 C387.731399,124.182873 385.907399,125.622873 382.931399,125.622873 C378.275399,125.622873 376.163399,122.886873 375.875399,119.766873 L368.915399,121.446873 C369.395399,126.246873 373.427399,132.342873 382.835399,132.342873 Z M414.743399,132.342873 C425.303399,132.342873 429.815399,125.142873 430.919399,120.438873 L423.671399,118.374873 C422.999399,120.822873 420.647399,124.758873 414.743399,124.758873 C409.655399,124.758873 404.951399,121.062873 404.951399,114.678873 C404.951399,107.526873 410.087399,104.262873 414.647399,104.262873 C420.647399,104.262873 422.807399,108.246873 423.335399,110.598873 L430.487399,108.342873 C429.383399,103.446873 424.871399,96.8708727 414.647399,96.8708727 C405.143399,96.8708727 397.079399,104.070873 397.079399,114.678873 C397.079399,125.286873 404.951399,132.342873 414.743399,132.342873 Z M442.187399,131.622873 L442.187399,118.086873 L455.771399,118.086873 L455.771399,131.622873 L463.403399,131.622873 L463.403399,97.5908727 L455.771399,97.5908727 L455.771399,110.934873 L442.187399,110.934873 L442.187399,97.5908727 L434.603399,97.5908727 L434.603399,131.622873 L442.187399,131.622873 Z M484.991399,132.342873 C494.543399,132.342873 502.655399,125.382873 502.655399,114.630873 C502.655399,103.830873 494.543399,96.8708727 484.991399,96.8708727 C475.391399,96.8708727 467.279399,103.830873 467.279399,114.630873 C467.279399,125.382873 475.391399,132.342873 484.991399,132.342873 Z M484.991399,124.854873 C480.239399,124.854873 475.151399,121.686873 475.151399,114.582873 C475.151399,107.478873 480.239399,104.262873 484.991399,104.262873 C489.695399,104.262873 494.783399,107.478873 494.783399,114.582873 C494.783399,121.686873 489.695399,124.854873 484.991399,124.854873 Z M518.003399,132.342873 C526.115399,132.342873 530.579399,126.918873 530.579399,121.590873 C530.579399,116.742873 527.219399,112.566873 520.739399,111.366873 L516.179399,110.502873 C513.827399,110.070873 512.819399,108.870873 512.819399,107.238873 C512.819399,105.366873 514.643399,103.590873 517.475399,103.590873 C521.603399,103.590873 522.899399,106.278873 523.139399,107.862873 L529.955399,105.942873 C529.235399,101.958873 526.019399,96.8708727 517.523399,96.8708727 C510.995399,96.8708727 505.331399,101.382873 505.331399,107.814873 C505.331399,112.854873 508.835399,116.694873 514.595399,117.798873 L519.251399,118.662873 C521.507399,119.094873 522.899399,120.342873 522.899399,122.070873 C522.899399,124.182873 521.075399,125.622873 518.099399,125.622873 C513.443399,125.622873 511.331399,122.886873 511.043399,119.766873 L504.083399,121.446873 C504.563399,126.246873 508.595399,132.342873 518.003399,132.342873 Z M545.735399,132.342873 C553.847399,132.342873 558.311399,126.918873 558.311399,121.590873 C558.311399,116.742873 554.951399,112.566873 548.471399,111.366873 L543.911399,110.502873 C541.559399,110.070873 540.551399,108.870873 540.551399,107.238873 C540.551399,105.366873 542.375399,103.590873 545.207399,103.590873 C549.335399,103.590873 550.631399,106.278873 550.871399,107.862873 L557.687399,105.942873 C556.967399,101.958873 553.751399,96.8708727 545.255399,96.8708727 C538.727399,96.8708727 533.063399,101.382873 533.063399,107.814873 C533.063399,112.854873 536.567399,116.694873 542.327399,117.798873 L546.983399,118.662873 C549.239399,119.094873 550.631399,120.342873 550.631399,122.070873 C550.631399,124.182873 548.807399,125.622873 545.831399,125.622873 C541.175399,125.622873 539.063399,122.886873 538.775399,119.766873 L531.815399,121.446873 C532.295399,126.246873 536.327399,132.342873 545.735399,132.342873 Z" id="NERDGESCHOSS" fill-rule="nonzero"></path>
                <path d="M21.8304602,52.5849036 L122.915605,153.454877 L122.915605,59.7983479 L138.87795,59.7983479 L138.87795,192.331242 L37.9417858,91.3483244 L37.9417858,132.669275 L21.8304602,132.669275 L21.8304602,52.5849036 Z M0,0 L101.34593,101.631662 L101.34593,59.9447328 L117.331549,59.9447328 L117.331549,139.987384 L16.0550697,38.836137 L16.0550697,132.609239 L0,132.609239 L0,0 Z" id="Combined-Shape"></path>
            </g>
        </g>
    </g>
</svg>