<svg width="40" height="40" viewBox="0 0 40 40" fill="none" xmlns="http://www.w3.org/2000/svg">
<path d="M5.45459 0L26.358 21.0134L26.3584 12.4121H34.1819V40L13.2779 18.9861L13.278 27.5879H5.45459V0Z" fill="white"/>
<mask id="mask0_1879_3055" style="mask-type:luminance" maskUnits="userSpaceOnUse" x="5" y="0" width="30" height="40">
<path d="M5.45459 0L26.358 21.0134L26.3584 12.4121H34.1819V40L13.2779 18.9861L13.278 27.5879H5.45459V0Z" fill="white"/>
</mask>
<g mask="url(#mask0_1879_3055)">
<g filter="url(#filter0_b_1879_3055)">
<path fill-rule="evenodd" clip-rule="evenodd" d="M-46.9471 18.3457C-46.9471 18.3457 -39.6824 7.64067 -32.5407 6.74848C-25.399 5.8563 -18.6677 7.38669 -11.3631 0.455522C-4.0585 -6.47565 14.8219 -10.7639 21.0583 -7.06206C27.2946 -3.36027 -6.43058 11.9221 -6.43058 11.9221L-37.701 21.8632L-46.9471 18.3457Z" fill="url(#paint0_linear_1879_3055)"/>
</g>
<g filter="url(#filter1_b_1879_3055)">
<path fill-rule="evenodd" clip-rule="evenodd" d="M-24.6554 20.7221C-24.6554 20.7221 -18.4764 7.182 -11.0799 6.955C-3.6835 6.728 3.61332 9.73529 10.3524 1.32722C17.0914 -7.08085 36.3804 -10.3021 43.4542 -4.41339C50.5281 1.47534 17.1193 17.584 17.1193 17.584L-14.4382 26.7756L-24.6554 20.7221Z" fill="url(#paint1_linear_1879_3055)"/>
</g>
<g filter="url(#filter2_b_1879_3055)">
<path fill-rule="evenodd" clip-rule="evenodd" d="M-19.1094 28.2033C-19.1094 28.2033 -11.6569 14.9937 -4.25274 15.6347C3.15138 16.2757 10.1491 20.2348 17.6735 12.3751C25.198 4.51549 44.7566 3.48013 51.2582 10.3795C57.7599 17.2788 22.8848 29.9128 22.8848 29.9128L-9.4859 35.644L-19.1094 28.2033Z" fill="url(#paint2_linear_1879_3055)"/>
</g>
<g filter="url(#filter3_b_1879_3055)">
<path fill-rule="evenodd" clip-rule="evenodd" d="M-15.3548 41.2995C-15.3548 41.2995 -7.60006 28.517 -0.225432 29.2183C7.1492 29.9196 14.0387 33.847 21.7371 26.2737C29.4354 18.7004 48.9815 17.8964 55.3055 24.6812C61.6294 31.4659 26.5184 43.4019 26.5184 43.4019L-5.92783 48.6439L-15.3548 41.2995Z" fill="url(#paint3_linear_1879_3055)"/>
</g>
</g>
<defs>
<filter id="filter0_b_1879_3055" x="-53.9552" y="-15.4321" width="82.7909" height="44.3033" filterUnits="userSpaceOnUse" color-interpolation-filters="sRGB">
<feFlood flood-opacity="0" result="BackgroundImageFix"/>
<feGaussianBlur in="BackgroundImageFix" stdDeviation="3.50404"/>
<feComposite in2="SourceAlpha" operator="in" result="effect1_backgroundBlur_1879_3055"/>
<feBlend mode="normal" in="SourceGraphic" in2="effect1_backgroundBlur_1879_3055" result="shape"/>
</filter>
<filter id="filter1_b_1879_3055" x="-31.6635" y="-14.4249" width="83.1092" height="48.2086" filterUnits="userSpaceOnUse" color-interpolation-filters="sRGB">
<feFlood flood-opacity="0" result="BackgroundImageFix"/>
<feGaussianBlur in="BackgroundImageFix" stdDeviation="3.50404"/>
<feComposite in2="SourceAlpha" operator="in" result="effect1_backgroundBlur_1879_3055"/>
<feBlend mode="normal" in="SourceGraphic" in2="effect1_backgroundBlur_1879_3055" result="shape"/>
</filter>
<filter id="filter2_b_1879_3055" x="-26.1174" y="-1.22359" width="85.1917" height="43.8756" filterUnits="userSpaceOnUse" color-interpolation-filters="sRGB">
<feFlood flood-opacity="0" result="BackgroundImageFix"/>
<feGaussianBlur in="BackgroundImageFix" stdDeviation="3.50404"/>
<feComposite in2="SourceAlpha" operator="in" result="effect1_backgroundBlur_1879_3055"/>
<feBlend mode="normal" in="SourceGraphic" in2="effect1_backgroundBlur_1879_3055" result="shape"/>
</filter>
<filter id="filter3_b_1879_3055" x="-22.3628" y="13.0477" width="85.4385" height="42.6043" filterUnits="userSpaceOnUse" color-interpolation-filters="sRGB">
<feFlood flood-opacity="0" result="BackgroundImageFix"/>
<feGaussianBlur in="BackgroundImageFix" stdDeviation="3.50404"/>
<feComposite in2="SourceAlpha" operator="in" result="effect1_backgroundBlur_1879_3055"/>
<feBlend mode="normal" in="SourceGraphic" in2="effect1_backgroundBlur_1879_3055" result="shape"/>
</filter>
<linearGradient id="paint0_linear_1879_3055" x1="-49.0941" y1="12.7526" x2="-43.8928" y2="26.3025" gradientUnits="userSpaceOnUse">
<stop stop-color="#FF50F1"/>
<stop offset="1" stop-color="#FFD54E"/>
</linearGradient>
<linearGradient id="paint1_linear_1879_3055" x1="-26.7889" y1="12.4899" x2="-19.6381" y2="31.1182" gradientUnits="userSpaceOnUse">
<stop stop-color="#FFEF50"/>
<stop offset="1" stop-color="#FF9E4E"/>
</linearGradient>
<linearGradient id="paint2_linear_1879_3055" x1="-6.2189" y1="21.7664" x2="-3.61981" y2="31.4663" gradientUnits="userSpaceOnUse">
<stop stop-color="#2CA8FF"/>
<stop offset="1" stop-color="#4ECFFF"/>
</linearGradient>
<linearGradient id="paint3_linear_1879_3055" x1="-17.4183" y1="33.0231" x2="-12.4106" y2="53.108" gradientUnits="userSpaceOnUse">
<stop stop-color="#50EDFF"/>
<stop offset="1" stop-color="#4EF2FF"/>
</linearGradient>
</defs>
</svg>
