<svg width="32" height="32" fill="none" xmlns="http://www.w3.org/2000/svg"><path d="M12 14.667v12m0-12H6.133c-.747 0-1.12 0-1.405.145-.251.128-.455.332-.583.583C4 15.68 4 16.053 4 16.8v9.867h8m0-12v-7.2c0-.747 0-1.12.145-1.406.128-.25.332-.455.583-.582.285-.146.658-.146 1.405-.146h3.733c.747 0 1.121 0 1.406.146.251.127.454.331.582.582.146.285.146.659.146 1.406v3.2m-8 16h8m0 0h8V12.8c0-.747 0-1.12-.146-1.405a1.33 1.33 0 0 0-.581-.583c-.285-.145-.66-.145-1.406-.145H20m0 16v-16" stroke="#888" stroke-width="3" stroke-linecap="round" stroke-linejoin="round"/></svg>
