<svg width="25" height="27" viewBox="0 0 25 27" fill="none" xmlns="http://www.w3.org/2000/svg">
<path d="M14.665 0C17.1503 3.29855e-05 19.165 2.01474 19.165 4.5V5H19.8301C22.3153 5.00004 24.3301 7.01475 24.3301 9.5V22.5C24.3301 24.9853 22.3153 27 19.8301 27H4.5C2.01472 27 0 24.9853 0 22.5V9.5C0 7.01472 2.01472 5 4.5 5H5.16504V4.5C5.16504 2.01472 7.17976 6.58898e-08 9.66504 0H14.665ZM16.2939 16.4707L16.1484 16.5H15.9131C15.9685 16.6565 16 16.8245 16 17C16 17.8284 15.3284 18.5 14.5 18.5H10.5C9.67157 18.5 9 17.8284 9 17C9 16.8245 9.03153 16.6565 9.08691 16.5H8.10645L7.96484 16.4727L3 15.5117V22.5C3 23.3284 3.67157 24 4.5 24H19.8301C20.6585 24 21.3301 23.3284 21.3301 22.5V15.4629L16.2939 16.4707ZM4.5 8C3.67157 8 3 8.67157 3 9.5V12.4551L8.39355 13.5H15.8525L21.3301 12.4043V9.5C21.3301 8.6716 20.6585 8.00004 19.8301 8H4.5ZM9.66504 3C8.83661 3 8.16504 3.67157 8.16504 4.5V5H16.165V4.5C16.165 3.67159 15.4934 3.00003 14.665 3H9.66504Z" fill="white"/>
</svg>
