<svg width="32" height="32" fill="none" xmlns="http://www.w3.org/2000/svg"><path d="M5.333 10.667h21.334m-21.334 0V22.4c0 1.494 0 2.24.291 2.81.256.502.663.91 1.165 1.166.57.29 1.316.29 2.807.29h12.808c1.49 0 2.236 0 2.806-.29a2.67 2.67 0 0 0 1.166-1.165c.29-.57.29-1.316.29-2.806V10.667m-21.333 0V9.6c0-1.493 0-2.24.291-2.81.256-.503.663-.91 1.165-1.166.57-.29 1.318-.29 2.811-.29h1.067m16 5.333V9.596c0-1.49 0-2.237-.29-2.807a2.669 2.669 0 0 0-1.167-1.165c-.57-.29-1.316-.29-2.81-.29h-1.067m-10.666 0h10.666m-10.666 0V2.666m10.666 2.666V2.667M20 16l-5.333 5.333L12 18.667" stroke="#888" stroke-width="3" stroke-linecap="round" stroke-linejoin="round"/></svg>
