<svg width="32" height="33" viewBox="0 0 32 33" fill="none" xmlns="http://www.w3.org/2000/svg">
<path d="M17.3333 12.7363L5.33329 12.7363M17.3333 12.7363L17.3333 6.86914C17.3333 6.1224 17.3333 5.74941 17.188 5.46419C17.0601 5.21331 16.8563 5.00948 16.6054 4.88165C16.3202 4.73633 15.9466 4.73633 15.1998 4.73633L5.33329 4.73633L5.33329 12.7363M17.3333 12.7363L24.5332 12.7363C25.2799 12.7363 25.6535 12.7363 25.9388 12.8817C26.1896 13.0095 26.3935 13.2133 26.5213 13.4642C26.6666 13.7494 26.6666 14.1224 26.6666 14.8691L26.6666 18.6025C26.6666 19.3492 26.6666 19.7234 26.5213 20.0086C26.3935 20.2595 26.1896 20.4627 25.9388 20.5905C25.6535 20.7358 25.2799 20.7363 24.5332 20.7363L21.3333 20.7363M5.33329 12.7363L5.33329 20.7363M5.33329 20.7363L5.33316 28.7363L19.1998 28.7363C19.9466 28.7363 20.3202 28.7358 20.6054 28.5905C20.8563 28.4627 21.0601 28.2602 21.188 28.0094C21.3333 27.7241 21.3333 27.3497 21.3333 26.603L21.3333 20.7363M5.33329 20.7363L21.3333 20.7363" stroke="#888888" stroke-width="3" stroke-linecap="round" stroke-linejoin="round"/>
</svg>
